<?xml version="1.0" encoding="UTF-8"?>
<svg id="Layer_1" data-name="Layer 1" xmlns="http://www.w3.org/2000/svg" viewBox="0 0 210.47 107.76">
  <defs>
    <style>
      .cls-1 {
        fill: #f8f1ef;
        stroke-width: 0px;
      }
    </style>
  </defs>
  <path class="cls-1" d="M172.97,32.76c-2.94,0-5.8.34-8.55.98-1.03-4.55-3.3-8.88-6.85-12.42-9.05-9.05-23.21-9.89-33.21-2.5-1.56-2.46-3.42-4.78-5.56-6.93-15.86-15.86-41.56-15.86-57.42,0-9.66,9.66-13.44,22.98-11.32,35.5-6.75-.17-13.56,2.31-18.72,7.46-3.26,3.26-5.45,7.19-6.58,11.35-1.24-.23-2.51-.35-3.81-.35-11.57,0-20.95,9.38-20.95,20.96s9.38,20.96,20.95,20.96h152.02c20.71,0,37.5-16.79,37.5-37.5s-16.79-37.5-37.5-37.5Z"/>
</svg>